# AST/ASF file generated using VICON BodyLanguage
# -----------------------------------------------
:version 1.10
:name VICON
:units
  mass 1.0
  length 0.45
  angle deg
:documentation
   .ast/.asf automatically generated from VICON data using
   VICON BodyBuilder and BodyLanguage model FoxedUp or BRILLIANT.MOD
:root
   order TX TY TZ RX RY RZ
   axis XYZ
   position 0 0 0  
   orientation 0 0 0 
:bonedata
  begin
     id 1 
     name lhipjoint
     direction 0.78388 -0.462562 0.414208 
     length 3.01181 
     axis 0 0 0  XYZ
  end
  begin
     id 2 
     name lfemur
     direction 0.34202 -0.939693 0  
     length 6.04673  
     axis 0 0 20  XYZ
    dof rx ry rz
    limits (-160.0 20.0)
           (-70.0 70.0)
           (-60.0 70.0)
  end
  begin
     id 3 
     name ltibia
     direction 0.34202 -0.939693 0   
     length 7.211   
     axis 0 0 20   XYZ
    dof rx
    limits (-10.0 170.0)
  end
  begin
     id 4 
     name lfoot
     direction 0.121887 -0.334882 0.934344   
     length 2.13567   
     axis -90 7.62852e-016 20   XYZ
    dof rx rz
    limits (-45.0 90.0)
           (-70.0 20.0)
  end
  begin
     id 5 
     name ltoes
     direction 1.53555e-011 -4.2179e-011 1   
     length 1.05957   
     axis -90 7.62852e-016 20   XYZ
    dof rx
    limits (-90.0 20.0)
  end
  begin
     id 6 
     name rhipjoint
     direction -0.769387 -0.475875 0.426129   
     length 2.92756  
     axis 0 0 0  XYZ 
  end
  begin
     id 7 
     name rfemur
     direction -0.34202 -0.939693 0   
     length 6.35468   
     axis 0 0 -20   XYZ
    dof rx ry rz
    limits (-160.0 20.0)
           (-70.0 70.0)
           (-70.0 60.0)
  end
  begin
     id 8 
     name rtibia
     direction -0.34202 -0.939693 0   
     length 7.37886   
     axis 0 0 -20   XYZ
    dof rx
    limits (-10.0 170.0)
 end
 begin
     id 9 
     name rfoot
     direction -0.101763 -0.279592 0.954711   
     length 2.21478  
     axis -90 -7.62852e-016 -20   XYZ
    dof rx rz
    limits (-45.0 90.0)
           (-20.0 70.0)
  end
  begin
     id 10 
     name rtoes
     direction -1.53494e-011 -4.21851e-011 1   
     length 1.10506   
     axis -90 -7.62852e-016 -20   XYZ
    dof rx
    limits (-90.0 20.0)
  end
  begin
     id 11 
     name lowerback
     direction 0.00747405 0.999267 0.0375481   
     length 2.13259   
     axis 0 0 0   XYZ
    dof rx ry rz
    limits (-20.0 45.0)
           (-30.0 30.0)
           (-30.0 30.0)
  end
  begin
     id 12 
     name upperback
     direction 0.00661626 0.996177 0.0871029   
     length 2.10528   
     axis 0 0 0   XYZ
    dof rx ry rz
    limits (-20.0 45.0)
           (-30.0 30.0)
           (-30.0 30.0)
  end
  begin
     id 13 
     name thorax
     direction 0.00320659 0.997679 0.0680167   
     length 2.11338   
     axis 0 0 0   XYZ
    dof rx ry rz
    limits (-20.0 45.0)
           (-30.0 30.0)
           (-30.0 30.0)
  end
  begin
     id 14 
     name lowerneck
     direction 0.0374841 0.973033 0.227602   
     length 1.42765   
     axis 0 0 0   XYZ
    dof rx ry rz
    limits (-20.0 45.0)
           (-30.0 30.0)
           (-30.0 30.0)
  end
  begin
     id 15 
     name upperneck
     direction 0.00481585 0.989155 -0.146795   
     length 1.47593   
     axis 0 0 0   XYZ
    dof rx ry rz
    limits (-20.0 45.0)
           (-30.0 30.0)
           (-30.0 30.0)
  end
  begin
     id 16
     name head
     direction -0.00292522 0.997206 -0.0746423  
     length 1.48116  
     axis 0 0 0   XYZ
    dof rx ry rz
    limits (-20.0 45.0)
           (-30.0 30.0)
           (-30.0 30.0)
  end
  begin
     id 17 
     name lclavicle
     direction 0.951444 0.305606 0.0368784  
     length 3.01855  
     axis 0 0 0   XYZ
    dof ry rz
    limits (-20.0 10.0)
           (0.0 20.0)
  end
  begin
     id 18 
     name lhumerus
     direction 1 -4.48977e-011 2.61664e-027   
     length 5.52731   
     axis 180 -30 -90   XYZ
    dof rx ry rz
    limits (-60.0 90.0)
           (-90.0 90.0)
           (-90.0 90.0)
  end
  begin
     id 19
     name lradius
     direction 1 -4.48944e-011 8.22157e-027   
     length 3.11059   
     axis 180 -30 -90   XYZ
    dof rx
    limits (-10.0 170.0)
  end
  begin
     id 20
     name lwrist
     direction 1 -4.48976e-011 1.5779e-026   
     length 1.5553   
     axis -1.15221e-014 90 90   XYZ
    dof ry
    limits (-180.0 0.0)
 end
  begin
     id 21 
     name lhand
     direction 1 -4.49025e-011 3.1558e-026   
     length 0.419626   
     axis -2.01367e-014 90 90   XYZ
    dof rx rz
    limits (-90.0 90.0)
           (-45.0 45.0)
  end
  begin
     id 22 
     name lfingers
     direction 1 -4.4904e-011 6.31161e-026   
     length 0.338313   
     axis -4.02734e-014 90 90   XYZ
    dof rx
    limits (0.0 90.0)
  end
  begin
     id 23
     name lthumb
     direction 0.707107 -6.35004e-011 0.707107   
     length 0.485752   
     axis -90 45 2.85299e-015   XYZ
    dof rx rz
    limits (-45.0 45.0)
           (-45.0 45.0)
  end
  begin
     id 24 
     name rclavicle
     direction -0.968876 0.223791 0.105816   
     length 3.04177  
     axis 0 0 0   XYZ 
    dof ry rz
    limits (-10.0 20.0)
           (-20.0 0.0)
  end
  begin
     id 25 
     name rhumerus
     direction -1 -4.48962e-011 -1.01384e-027  
     length 5.25396   
     axis 180 30 90   XYZ
    dof rx ry rz
    limits (-90.0 60.0)
           (-90.0 90.0)
           (-90.0 90.0)
  end
  begin
     id 26 
     name rradius
     direction -1 -4.48955e-011 8.88542e-027   
     length 3.10567   
     axis 180 30 90   XYZ
    dof rx
    limits (-10.0 170.0)
  end
  begin
     id 27 
     name rwrist
     direction -1 -4.48994e-011 1.5779e-026   
     length 1.55283   
     axis -1.15221e-014 -90 -90   XYZ
    dof ry
    limits (-180.0 0.0)
  end
  begin
     id 28
     name rhand
     direction -1 -4.48891e-011 3.1558e-026   
     length 0.498676   
     axis -2.01367e-014 -90 -90   XYZ
    dof rx rz
    limits (-90.0 90.0)
           (-45.0 45.0)
  end
  begin
     id 29
     name rfingers
     direction -1 -4.48972e-011 6.31161e-026   
     length 0.402045   
     axis -4.02734e-014 -90 -90   XYZ
    dof rx
    limits (0.0 90.0)
  end
  begin
     id 30
     name rthumb
     direction -0.707107 -6.34849e-011 0.707107   
     length 0.577259   
     axis -90 -45 -2.85299e-015   XYZ
    dof rx rz
    limits (-45.0 45.0)
           (-45.0 45.0)
  end
:hierarchy
  begin
    root lhipjoint rhipjoint lowerback
    lhipjoint lfemur
    lfemur ltibia
    ltibia lfoot
    lfoot ltoes
    rhipjoint rfemur
    rfemur rtibia
    rtibia rfoot
    rfoot rtoes
    lowerback upperback
    upperback thorax
    thorax lowerneck lclavicle rclavicle
    lowerneck upperneck
    upperneck head
    lclavicle lhumerus
    lhumerus lradius
    lradius lwrist
    lwrist lhand lthumb
    lhand lfingers
    rclavicle rhumerus
    rhumerus rradius
    rradius rwrist
    rwrist rhand rthumb
    rhand rfingers
  end

#!OML:ASF H:\Pregnant\Project 1\Capture day 1\Session 1\femalepreg.ASF
:FULLY-SPECIFIED
:DEGREES
103
root 2.68876 15.7118 31.8929 183.704 -85.7361 -167.229
lowerback -25.0566 -0.85753 1.20921
upperback -7.55731 -2.23427 2.04206
thorax 5.60649 -1.36474 0.852688
lowerneck -13.4067 -7.96628 -5.84571
upperneck 24.9823 -14.0486 11.3338
head 11.6338 -5.98676 3.00281
rclavicle 1.64991e-014 -1.27222e-014
rhumerus -39.3427 -11.3131 -69.8981
rradius 29.8251
rwrist -35.0094
rhand -13.5337 -30.9171
rfingers 7.12502
rthumb 12.5787 -60.5184
lclavicle 1.64991e-014 -1.27222e-014
lhumerus -39.7719 14.3553 73.6687
lradius 31.1934
lwrist 60.7646
lhand -15.0652 15.7924
lfingers 7.12502
lthumb 11.1019 45.4787
rfemur -25.4225 19.5562 21.7624
rtibia 26.4982
rfoot -13.9703 -13.6298
rtoes 5.62571
lfemur 0 0 0
ltibia 0
lfoot 0 0
ltoes 0
104
root 2.694 15.7117 31.8936 183.172 -85.7827 -166.723
lowerback -24.9785 -0.919942 1.18
upperback -7.52465 -2.30833 2.12082
thorax 5.60889 -1.39842 0.934897
lowerneck -13.4452 -8.04777 -5.898
upperneck 24.7516 -14.0996 11.3347
head 11.5624 -6.01465 3.00022
rclavicle -5.46658e-015 -1.15295e-014
rhumerus -39.0691 -10.7413 -70.1267
rradius 29.3469
rwrist -34.8849
rhand -12.1636 -30.751
rfingers 7.12502
rthumb 13.8993 -60.2665
lclavicle -5.46658e-015 -1.15295e-014
lhumerus -39.6473 13.9339 74.1441
lradius 30.8148
lwrist 60.6063
lhand -15.8661 15.7132
lfingers 7.12502
lthumb 10.3294 45.4395
rfemur -25.3889 19.524 21.8053
rtibia 26.4764
rfoot -13.9647 -13.6409
rtoes 5.67369
lfemur 0 0 0
ltibia 0
lfoot 0 0
ltoes 0
105
root 2.69921 15.7115 31.8942 182.713 -85.8245 -166.288
lowerback -24.9053 -0.974785 1.14873
upperback -7.4903 -2.37169 2.19236
thorax 5.61539 -1.42691 1.01343
lowerneck -13.4839 -8.1291 -5.95287
upperneck 24.5265 -14.1568 11.3518
head 11.4959 -6.04386 3.00301
rclavicle 5.76476e-015 -1.03368e-014
rhumerus -38.8124 -10.3535 -70.2618
rradius 28.8453
rwrist -34.5979
rhand -10.8266 -30.5504
rfingers 7.12502
rthumb 15.1875 -59.973
lclavicle 5.76476e-015 -1.03368e-014
lhumerus -39.5188 13.481 74.635
lradius 30.4508
lwrist 60.5518
lhand -16.7854 15.6781
lfingers 7.12502
lthumb 9.44245 45.4466
rfemur -25.3595 19.4811 21.8444
rtibia 26.4561
rfoot -13.9604 -13.6406
rtoes 5.71303
lfemur 0 0 0
ltibia 0
lfoot 0 0
ltoes 0
106
root 2.70437 15.7114 31.8946 182.339 -85.8605 -165.935
lowerback -24.8371 -1.0277 1.10598
upperback -7.45487 -2.43021 2.26569
thorax 5.62618 -1.45307 1.10178
lowerneck -13.5238 -8.20853 -6.01656
upperneck 24.3071 -14.2127 11.3772
head 11.4335 -6.07231 3.01044
rclavicle -2.08724e-014 1.19271e-014
rhumerus -38.5652 -10.1282 -70.3083
rradius 28.3281
rwrist -34.1612
rhand -9.58403 -30.3382
rfingers 7.12502
rthumb 16.3842 -59.6662
lclavicle -2.08724e-014 1.19271e-014
lhumerus -39.3962 13.0101 75.1482
lradius 30.1137
lwrist 60.5553
lhand -17.8222 15.6549
lfingers 7.12502
lthumb 8.44197 45.4661
rfemur -25.3365 19.4322 21.8789
rtibia 26.4393
rfoot -13.9576 -13.6303
rtoes 5.75131
lfemur 0 0 0
ltibia 0
lfoot 0 0
ltoes 0
107
root 2.70939 15.7113 31.8947 182.062 -85.8902 -165.675
lowerback -24.7761 -1.07354 1.05691
upperback -7.4194 -2.47809 2.33445
thorax 5.64059 -1.47416 1.1917
lowerneck -13.5605 -8.28831 -6.08286
upperneck 24.0896 -14.2714 11.4094
head 11.3726 -6.10173 3.02045
rclavicle -9.93923e-017 -1.03368e-014
rhumerus -38.3369 -10.0482 -70.2889
rradius 27.8108
rwrist -33.6059
rhand -8.5151 -30.1218
rfingers 7.12502
rthumb 17.4132 -59.3618
lclavicle -9.93923e-017 -1.03368e-014
lhumerus -39.2811 12.528 75.6679
lradius 29.8104
lwrist 60.5863
lhand -18.9263 15.6766
lfingers 7.12502
lthumb 7.37629 45.528
rfemur -25.3227 19.383 21.9063
rtibia 26.4278
rfoot -13.9551 -13.6134
rtoes 5.78275
lfemur 0 0 0
ltibia 0
lfoot 0 0
ltoes 0
108
root 2.71416 15.7112 31.8945 181.892 -85.9137 -165.518
lowerback -24.7232 -1.0892 1.02146
upperback -7.38796 -2.48721 2.36057
thorax 5.6515 -1.4767 1.23857
lowerneck -13.5744 -8.38319 -6.10807
upperneck 23.8589 -14.3708 11.4659
head 11.306 -6.14575 3.02656
rclavicle 1.2921e-015 -5.56597e-015
rhumerus -38.1669 -10.1468 -70.242
rradius 27.305
rwrist -32.9713
rhand -7.66306 -29.925
rfingers 7.12502
rthumb 18.233 -59.0905
lclavicle 1.2921e-015 -5.56597e-015
lhumerus -39.1674 11.978 76.1569
lradius 29.543
lwrist 60.6315
lhand -20.0379 15.7532
lfingers 7.12502
lthumb 6.30324 45.6394
rfemur -25.3189 19.3314 21.926
rtibia 26.4226
rfoot -13.9551 -13.587
rtoes 5.81791
lfemur 0 0 0
ltibia 0
lfoot 0 0
ltoes 0
109
root 2.71866 15.7114 31.8939 181.873 -85.9324 -165.507
lowerback -24.6796 -1.07962 0.993563
upperback -7.36052 -2.46293 2.34924
thorax 5.65999 -1.46325 1.24987
lowerneck -13.5648 -8.48937 -6.09787
upperneck 23.6159 -14.5016 11.5405
head 11.2329 -6.20138 3.02906
rclavicle 2.27608e-014 1.19271e-014
rhumerus -38.0511 -10.3901 -70.18
rradius 26.8215
rwrist -32.2926
rhand -7.07437 -29.7601
rfingers 7.12502
rthumb 18.7993 -58.8717
lclavicle 2.27608e-014 1.19271e-014
lhumerus -39.06 11.3971 76.6017
lradius 29.3144
lwrist 60.6799
lhand -21.1142 15.888
lfingers 7.12502
lthumb 5.26412 45.8026
rfemur -25.3257 19.2778 21.9349
rtibia 26.4241
rfoot -13.9553 -13.554
rtoes 5.8282
lfemur 0 0 0
ltibia 0
lfoot 0 0
ltoes 0
110
root 2.72284 15.7118 31.8932 182.002 -85.9464 -165.639
lowerback -24.6477 -1.07269 0.955041
upperback -7.33046 -2.44008 2.34015
thorax 5.67769 -1.45047 1.26893
lowerneck -13.5585 -8.59354 -6.09466
upperneck 23.3686 -14.627 11.6181
head 11.1595 -6.25496 3.03458
rclavicle -1.75924e-014 1.59028e-015
rhumerus -37.9389 -10.6779 -70.106
rradius 26.3638
rwrist -31.6073
rhand -6.75275 -29.6643
rfingers 7.12502
rthumb 19.1086 -58.7456
lclavicle -1.75924e-014 1.59028e-015
lhumerus -38.9681 10.8802 77.0193
lradius 29.1267
lwrist 60.7056
lhand -22.1594 16.0327
lfingers 7.12502
lthumb 4.25486 45.97
rfemur -25.342 19.2218 21.9324
rtibia 26.4323
rfoot -13.9577 -13.5127
rtoes 5.8292
lfemur 0 0 0
ltibia 0
lfoot 0 0
ltoes 0
111
root 2.72666 15.7123 31.8921 182.235 -85.9554 -165.87
lowerback -24.6252 -1.06531 0.913753
upperback -7.30488 -2.41535 2.31538
thorax 5.69442 -1.43705 1.27291
lowerneck -13.5214 -8.68703 -6.04513
upperneck 23.1086 -14.7473 11.6925
head 11.0712 -6.3055 3.03363
rclavicle 1.97791e-014 -2.38542e-015
rhumerus -37.8541 -11.0135 -70.0546
rradius 25.9348
rwrist -30.9309
rhand -6.72329 -29.6339
rfingers 7.12502
rthumb 19.1369 -58.7124
lclavicle 1.97791e-014 -2.38542e-015
lhumerus -38.9046 10.3857 77.3839
lradius 28.9882
lwrist 60.7448
lhand -23.1525 16.1843
lfingers 7.12502
lthumb 3.29579 46.1386
rfemur -25.3661 19.1644 21.9234
rtibia 26.4461
rfoot -13.9615 -13.4653
rtoes 5.81021
lfemur 0 0 0
ltibia 0
lfoot 0 0
ltoes 0
112
root 2.73017 15.7128 31.8908 182.556 -85.9598 -166.186
lowerback -24.6141 -1.09896 0.839364
upperback -7.27441 -2.43999 2.336
thorax 5.72653 -1.44756 1.33058
lowerneck -13.5025 -8.74977 -6.01107
upperneck 22.8631 -14.8082 11.732
head 10.9837 -6.33232 3.03212
rclavicle -5.1684e-015 2.38542e-015
rhumerus -37.7191 -11.2671 -70.0185
rradius 25.5298
rwrist -30.2968
rhand -6.9731 -29.6897
rfingers 7.12502
rthumb 18.8967 -58.7918
lclavicle -5.1684e-015 2.38542e-015
lhumerus -38.8769 10.0402 77.7309
lradius 28.8984
lwrist 60.788
lhand -24.1065 16.3135
lfingers 7.12502
lthumb 2.37454 46.28
rfemur -25.3963 19.1061 21.9085
rtibia 26.4629
rfoot -13.9675 -13.4111
rtoes 5.7822
lfemur 0 0 0
ltibia 0
lfoot 0 0
ltoes 0
113
root 2.73333 15.7134 31.8893 182.919 -85.9587 -166.54
lowerback -24.6131 -1.15117 0.753187
upperback -7.24226 -2.48725 2.36896
thorax 5.76714 -1.46914 1.4016
lowerneck -13.4736 -8.78936 -5.95214
upperneck 22.6209 -14.8346 11.7464
head 10.8877 -6.34477 3.02398
rclavicle -1.43125e-014 2.3059e-014
rhumerus -37.5761 -11.53 -69.9984
rradius 25.1553
rwrist -29.6714
rhand -7.48342 -29.8301
rfingers 7.12502
rthumb 18.4058 -58.9793
lclavicle -1.43125e-014 2.3059e-014
lhumerus -38.874 9.7514 78.0525
lradius 28.8536
lwrist 60.8615
lhand -24.9925 16.4262
lfingers 7.12502
lthumb 1.51877 46.4006
rfemur -25.429 19.0512 21.8905
rtibia 26.4799
rfoot -13.9769 -13.3524
rtoes 5.76983
lfemur 0 0 0
ltibia 0
lfoot 0 0
ltoes 0
114
root 2.73618 15.714 31.8875 183.261 -85.9535 -166.872
lowerback -24.6196 -1.2332 0.646445
upperback -7.20564 -2.57138 2.43746
thorax 5.82 -1.50865 1.51209
lowerneck -13.4563 -8.80273 -5.90009
upperneck 22.3914 -14.8124 11.7297
head 10.7914 -6.33757 3.01372
rclavicle -2.34566e-014 1.59028e-015
rhumerus -37.4056 -11.8242 -69.9513
rradius 24.8074
rwrist -28.9915
rhand -8.19581 -30.0675
rfingers 7.12502
rthumb 17.7204 -59.2801
lclavicle -2.34566e-014 1.59028e-015
lhumerus -38.8941 9.54065 78.3784
lradius 28.8515
lwrist 60.9743
lhand -25.8181 16.4985
lfingers 7.12502
lthumb 0.721398 46.4771
rfemur -25.4622 18.9987 21.8748
rtibia 26.4952
rfoot -13.9881 -13.2888
rtoes 5.778
lfemur 0 0 0
ltibia 0
lfoot 0 0
ltoes 0
115
root 2.73879 15.7146 31.8856 183.582 -85.9469 -167.177
lowerback -24.6326 -1.31922 0.535934
upperback -7.16725 -2.66047 2.51196
thorax 5.87912 -1.55067 1.62959
lowerneck -13.438 -8.8052 -5.83946
upperneck 22.1677 -14.7728 11.6969
head 10.6935 -6.32325 2.9995
rclavicle 9.0447e-015 -1.35174e-014
rhumerus -37.2429 -12.1693 -69.8946
rradius 24.498
rwrist -28.3047
rhand -9.09914 -30.3915
rfingers 7.12502
rthumb 16.851 -59.6803
lclavicle 9.0447e-015 -1.35174e-014
lhumerus -38.9203 9.30578 78.7235
lradius 28.8863
lwrist 61.1423
lhand -26.5765 16.5383
lfingers 7.12502
lthumb -0.0110909 46.518
rfemur -25.4969 18.9473 21.861
rtibia 26.5079
rfoot -13.999 -13.2239
rtoes 5.79047
lfemur 0 0 0
ltibia 0
lfoot 0 0
ltoes 0
116
root 2.74114 15.7153 31.8834 183.861 -85.9408 -167.441
lowerback -24.6497 -1.39143 0.43505
upperback -7.12791 -2.73277 2.57179
thorax 5.94023 -1.58458 1.73032
lowerneck -13.4182 -8.81425 -5.76587
upperneck 21.9436 -14.7482 11.6692
head 10.5967 -6.31456 2.9827
rclavicle -1.54058e-014 7.95139e-016
rhumerus -37.1139 -12.6286 -69.8141
rradius 24.2286
rwrist -27.5894
rhand -10.1387 -30.7958
rfingers 7.12502
rthumb 15.8501 -60.1671
lclavicle -1.54058e-014 7.95139e-016
lhumerus -38.943 8.98369 79.0933
lradius 28.9522
lwrist 61.3568
lhand -27.2611 16.5421
lfingers 7.12502
lthumb -0.672292 46.5208
rfemur -25.5312 18.9018 21.8487
rtibia 26.5183
rfoot -14.0121 -13.1618
rtoes 5.84064
lfemur 0 0 0
ltibia 0
lfoot 0 0
ltoes 0
117
root 2.74329 15.716 31.8812 184.129 -85.9381 -167.69
lowerback -24.6681 -1.43828 0.348521
upperback -7.09165 -2.77329 2.60271
thorax 5.99579 -1.60317 1.80064
lowerneck -13.3894 -8.83744 -5.67433
upperneck 21.7223 -14.7544 11.6543
head 10.5026 -6.31824 2.96303
rclavicle 3.21037e-014 1.35174e-014
rhumerus -37.0343 -13.1309 -69.7554
rradius 24.0083
rwrist -26.9438
rhand -11.3072 -31.2744
rfingers 7.12502
rthumb 14.7245 -60.7315
lclavicle 3.21037e-014 1.35174e-014
lhumerus -38.9642 8.52771 79.491
lradius 29.0505
lwrist 61.6162
lhand -27.869 16.5249
lfingers 7.12502
lthumb -1.25937 46.501
rfemur -25.5658 18.8596 21.8364
rtibia 26.5271
rfoot -14.0255 -13.1073
rtoes 5.89831
lfemur 0 0 0
ltibia 0
lfoot 0 0
ltoes 0
118
root 2.74529 15.7167 31.8789 184.414 -85.9398 -167.955
lowerback -24.687 -1.48966 0.25061
upperback -7.05257 -2.81849 2.65353
thorax 6.05654 -1.62409 1.89772
lowerneck -13.3885 -8.86302 -5.63198
upperneck 21.5216 -14.7534 11.6381
head 10.4247 -6.32015 2.95089
rclavicle 2.60408e-014 -7.95139e-016
rhumerus -36.9442 -13.5939 -69.6905
rradius 23.8249
rwrist -26.3658
rhand -12.5564 -31.8045
rfingers 7.12502
rthumb 13.5208 -61.3456
lclavicle 2.60408e-014 -7.95139e-016
lhumerus -38.9861 8.08944 79.9185
lradius 29.1544
lwrist 61.7787
lhand -28.2735 16.5422
lfingers 7.12502
lthumb -1.6501 46.5155
rfemur -25.6007 18.8204 21.8209
rtibia 26.5352
rfoot -14.0396 -13.0597
rtoes 5.9683
lfemur 0 0 0
ltibia 0
lfoot 0 0
ltoes 0
